# xmcd
#
# Track frame offsets: 
#        150
#        12805
#        27256
#        40627
#        54187
#        66208
#        75809
#        89101
#        101084
#        111358
#        124680
#        137735
#        157060
#        169913
#        183174
#        199079
#        216259
#        229156
#        239414
#        251752
#        275875
#        286425
#
# Disc length: 4008 seconds
#
# Revision: 2
# Processed by: cddbd v1.5.2PL0 Copyright (c) Steve Scherf et al.
# Submitted via: ExactAudioCopyFreeDBPlugin 1.0
#
DISCID=3d0fa616
DTITLE=Various Artist - Get Your Lie Straight: A Galaxy Of Funky Soul
DYEAR=2004
DGENRE=Soul
TTITLE0=Rodger Collins - Foxy Girls In Oakland
TTITLE1=The Debonaires - Stop, Let's Be United
TTITLE2=Bill Coday - Get Your Lie Straight
TTITLE3=Bobby Rush - Chicken Heads
TTITLE4=Loleatta Holloway - Bring It On Up
TTITLE5=Lenny Williams - I Love Her Too
TTITLE6=J.J. Malone - People Say
TTITLE7=Merl Saunders and Heavy Turbulence - The Iron Horse
TTITLE8=Rodger Collins - I'm Leaving This Place
TTITLE9=Tiny Powell - Bossy Woman
TTITLE10=Bill Coday - Let Me Be Your Handy Man
TTITLE11=Everyday People - Try The Life
TTITLE12=Lenny Williams - Feelin' Blue
TTITLE13=The Right Kind - My Money Is Funny
TTITLE14=Ben and Larry - Manpower
TTITLE15=J.J. Malone - One Step Away
TTITLE16=Bill Coday - When You Find A Fool, Bump His Head
TTITLE17=Rodger Collins - Your Love, It's Burning
TTITLE18=Bobby Eaton - We Gonna Do Our Thing
TTITLE19=The Debonaires - I Want To Talk About It (World) Parts 1 and 2
TTITLE20=Bill Coday - I Got A Thing
TTITLE21=The Sequins - I Get What I Want
EXTD=
EXTT0=
EXTT1=
EXTT2=
EXTT3=
EXTT4=
EXTT5=
EXTT6=
EXTT7=
EXTT8=
EXTT9=
EXTT10=
EXTT11=
EXTT12=
EXTT13=
EXTT14=
EXTT15=
EXTT16=
EXTT17=
EXTT18=
EXTT19=
EXTT20=
EXTT21=
PLAYORDER=
